<svg width="508" height="575" viewBox="0 0 508 575" fill="none" xmlns="http://www.w3.org/2000/svg">
<g clip-path="url(#clip0_208_1336)">
<path d="M432.246 498.009C489.651 435.725 520.32 343.607 503.334 244.424C487.24 150.266 425.902 71.914 346.006 37.9981V22.2439C346.006 18.7896 342.651 17.2717 342.651 17.2717C333.319 12.4565 304.328 -0.0526123 254 -0.0526123C203.672 -0.0526123 174.89 12.3518 165.454 17.2194C165.454 17.2194 161.994 19.2083 161.994 22.5056V37.9457C82.0454 71.9663 20.7604 150.318 4.66589 244.424C-12.2674 343.555 18.3489 435.725 75.7544 498.009L38.585 506.854C34.7055 507.691 34.4958 511.721 35.8589 513.71C37.2219 515.699 80.1057 571.336 80.1057 571.336C83.1988 575.366 88.5986 576.204 92.6353 573.325L190.146 502.562C193.501 500.102 194.026 495.444 191.247 492.356L142.439 438.603C105.427 398.459 86.187 338.478 98.9788 274.31C111.98 209.095 160.107 156.651 219.452 142.886C231.195 140.164 242.729 138.856 254 138.856C265.271 138.856 276.857 140.164 288.548 142.886C347.893 156.651 396.02 209.043 409.021 274.31C421.813 338.478 402.573 398.459 365.561 438.603L316.753 492.356C313.974 495.392 314.499 500.102 317.854 502.562L415.365 573.325C419.401 576.256 424.749 575.418 427.894 571.336C427.894 571.336 470.726 515.699 472.141 513.71C473.504 511.721 473.295 507.691 469.415 506.854L432.246 498.009V498.009ZM165.139 135.402C164.668 135.768 164.038 136.187 163.567 136.501C126.187 160.21 96.8293 198.575 81.7309 242.436C74.1817 263.947 69.6731 288.285 67.9955 311.576C66.3179 334.867 69.3586 357.687 76.069 380.821C78.6902 389.875 73.5001 399.349 64.4306 401.966C55.7804 404.478 46.7109 399.715 43.6178 391.446C34.3385 366.323 28.5193 338.164 28.7815 310.529C28.9912 283.051 32.0318 256.515 39.4238 229.351C53.998 175.912 86.0822 126.033 132.741 91.6983C144.851 82.7482 161.889 85.3129 170.801 97.4032C179.766 109.494 177.197 126.504 165.087 135.454L165.139 135.402ZM254 108.709C240.212 108.709 229.046 97.5603 229.046 83.795C229.046 70.0298 240.212 58.8815 254 58.8815C267.788 58.8815 278.954 70.0298 278.954 83.795C278.954 97.5603 267.788 108.709 254 108.709ZM347.579 136.448C334.892 128.388 331.117 111.587 339.191 98.9211C347.264 86.255 364.093 82.5389 376.78 90.5468C377.304 90.8608 377.881 91.2795 378.353 91.6459C425.063 125.981 457.095 175.86 471.669 229.298C479.061 256.462 482.102 282.946 482.312 310.477C482.521 338.164 476.702 366.27 467.475 391.393C464.225 400.239 454.421 404.792 445.562 401.547C437.121 398.459 432.613 389.3 435.024 380.768C441.735 357.582 444.828 334.814 443.098 311.523C441.42 288.18 436.911 263.895 429.362 242.383C414.264 198.523 384.906 160.21 347.527 136.448H347.579Z" fill="white"/>
</g>
<defs>
<clipPath id="clip0_208_1336">
<rect width="508" height="575" fill="white"/>
</clipPath>
</defs>
</svg>
